<svg width="200" height="35" viewBox="0 0 200 35" fill="none" xmlns="http://www.w3.org/2000/svg">
<path fill-rule="evenodd" clip-rule="evenodd" d="M23.1244 25.6061L28.8006 11.5183L22.1457 18.3991L14.3246 7.39998C14.3246 7.39998 7.54477 19.1019 3.20056 26.6C5.77994 26.6 9.80547 26.6 9.80547 26.6L15.1075 17.0511L23.1244 25.6061Z" fill="#FF4400"/>
<path d="M39.904 18.968V15.32H52.624V18.968H39.904ZM50.056 9.2H54.112V26H50.056V9.2ZM38.776 9.2H42.832V26H38.776V9.2ZM57.5232 9.2H61.5792V20.192C61.5792 21.04 61.8032 21.728 62.2512 22.256C62.6992 22.784 63.3712 23.048 64.2672 23.048C65.1792 23.048 65.8592 22.784 66.3072 22.256C66.7552 21.728 66.9792 21.04 66.9792 20.192V9.2H71.0352V20.48C71.0352 21.536 70.8592 22.456 70.5072 23.24C70.1712 24.024 69.6912 24.672 69.0672 25.184C68.4592 25.68 67.7392 26.056 66.9072 26.312C66.0912 26.568 65.2112 26.696 64.2672 26.696C63.3232 26.696 62.4432 26.568 61.6272 26.312C60.8112 26.056 60.0912 25.68 59.4672 25.184C58.8592 24.672 58.3792 24.024 58.0272 23.24C57.6912 22.456 57.5232 21.536 57.5232 20.48V9.2ZM77.4953 17.648V15.872H80.2073C80.6713 15.872 81.0633 15.8 81.3833 15.656C81.7193 15.512 81.9753 15.312 82.1513 15.056C82.3273 14.784 82.4153 14.456 82.4153 14.072C82.4153 13.496 82.2233 13.064 81.8393 12.776C81.4553 12.488 80.9113 12.344 80.2073 12.344H78.5273V22.856H80.5913C81.1193 22.856 81.5913 22.792 82.0073 22.664C82.4233 22.52 82.7513 22.296 82.9913 21.992C83.2473 21.672 83.3753 21.24 83.3753 20.696C83.3753 20.344 83.3033 20.04 83.1593 19.784C83.0153 19.528 82.8153 19.32 82.5593 19.16C82.3033 19 82.0073 18.888 81.6713 18.824C81.3513 18.744 80.9913 18.704 80.5913 18.704H77.4953V16.496H81.0473C81.8633 16.496 82.6553 16.584 83.4233 16.76C84.1913 16.936 84.8873 17.224 85.5113 17.624C86.1353 18.008 86.6313 18.504 86.9993 19.112C87.3833 19.704 87.5753 20.424 87.5753 21.272C87.5753 22.392 87.3033 23.296 86.7593 23.984C86.2313 24.672 85.4793 25.184 84.5033 25.52C83.5273 25.84 82.3753 26 81.0473 26H74.4713V9.2H80.6393C81.8073 9.2 82.8313 9.36 83.7113 9.68C84.6073 9.984 85.3113 10.456 85.8233 11.096C86.3513 11.72 86.6153 12.512 86.6153 13.472C86.6153 14.352 86.3513 15.104 85.8233 15.728C85.3113 16.352 84.6073 16.832 83.7113 17.168C82.8313 17.488 81.8073 17.648 80.6393 17.648H77.4953ZM98.7368 19.928V16.808H107.233C107.313 18.152 107.177 19.408 106.825 20.576C106.473 21.744 105.929 22.776 105.193 23.672C104.457 24.568 103.537 25.272 102.433 25.784C101.329 26.28 100.065 26.528 98.6408 26.528C97.2968 26.528 96.0648 26.32 94.9448 25.904C93.8248 25.472 92.8568 24.864 92.0408 24.08C91.2248 23.28 90.5848 22.336 90.1208 21.248C89.6728 20.144 89.4488 18.928 89.4488 17.6C89.4488 16.272 89.6808 15.072 90.1448 14C90.6088 12.912 91.2648 11.984 92.1128 11.216C92.9608 10.448 93.9528 9.856 95.0888 9.44C96.2248 9.024 97.4568 8.816 98.7848 8.816C99.9688 8.816 101.033 8.984 101.977 9.32C102.921 9.656 103.753 10.128 104.473 10.736C105.209 11.328 105.841 12.016 106.369 12.8L102.769 14.672C102.385 14 101.865 13.448 101.209 13.016C100.569 12.568 99.7608 12.344 98.7848 12.344C97.8568 12.344 97.0008 12.552 96.2168 12.968C95.4488 13.384 94.8328 13.984 94.3688 14.768C93.9208 15.536 93.6968 16.48 93.6968 17.6C93.6968 18.704 93.9128 19.664 94.3448 20.48C94.7928 21.28 95.3928 21.904 96.1448 22.352C96.9128 22.784 97.7928 23 98.7848 23C99.3928 23 99.9448 22.928 100.441 22.784C100.937 22.624 101.361 22.408 101.713 22.136C102.065 21.848 102.361 21.52 102.601 21.152C102.857 20.768 103.057 20.36 103.201 19.928H98.7368ZM109.836 9.2H113.892V20.192C113.892 21.04 114.116 21.728 114.564 22.256C115.012 22.784 115.684 23.048 116.58 23.048C117.492 23.048 118.172 22.784 118.62 22.256C119.068 21.728 119.292 21.04 119.292 20.192V9.2H123.348V20.48C123.348 21.536 123.172 22.456 122.82 23.24C122.484 24.024 122.004 24.672 121.38 25.184C120.772 25.68 120.052 26.056 119.22 26.312C118.404 26.568 117.524 26.696 116.58 26.696C115.636 26.696 114.756 26.568 113.94 26.312C113.124 26.056 112.404 25.68 111.78 25.184C111.172 24.672 110.692 24.024 110.34 23.24C110.004 22.456 109.836 21.536 109.836 20.48V9.2ZM129.472 26V22.664H137.944V26H129.472ZM129.472 12.536V9.2H137.944V12.536H129.472ZM129.472 18.8V15.536H137.464V18.8H129.472ZM126.784 9.2H130.672V26H126.784V9.2ZM143.093 20.096C143.429 20.704 143.805 21.232 144.221 21.68C144.653 22.128 145.117 22.472 145.613 22.712C146.125 22.952 146.661 23.072 147.221 23.072C147.813 23.072 148.301 22.928 148.685 22.64C149.069 22.336 149.261 21.928 149.261 21.416C149.261 20.984 149.149 20.64 148.925 20.384C148.701 20.112 148.341 19.856 147.845 19.616C147.349 19.376 146.693 19.104 145.877 18.8C145.477 18.656 145.013 18.456 144.485 18.2C143.973 17.944 143.485 17.616 143.021 17.216C142.557 16.8 142.173 16.304 141.869 15.728C141.565 15.136 141.413 14.424 141.413 13.592C141.413 12.6 141.669 11.744 142.181 11.024C142.709 10.304 143.413 9.76 144.293 9.392C145.189 9.008 146.181 8.816 147.269 8.816C148.389 8.816 149.357 9 150.173 9.368C151.005 9.736 151.693 10.2 152.237 10.76C152.781 11.32 153.197 11.888 153.485 12.464L150.389 14.192C150.149 13.792 149.869 13.448 149.549 13.16C149.245 12.856 148.901 12.624 148.517 12.464C148.149 12.288 147.749 12.2 147.317 12.2C146.741 12.2 146.301 12.328 145.997 12.584C145.693 12.824 145.541 13.128 145.541 13.496C145.541 13.88 145.685 14.216 145.973 14.504C146.277 14.792 146.701 15.056 147.245 15.296C147.805 15.536 148.477 15.792 149.261 16.064C149.853 16.288 150.405 16.552 150.917 16.856C151.429 17.144 151.877 17.496 152.261 17.912C152.661 18.328 152.973 18.808 153.197 19.352C153.421 19.896 153.533 20.52 153.533 21.224C153.533 22.072 153.357 22.832 153.005 23.504C152.669 24.16 152.205 24.712 151.613 25.16C151.037 25.608 150.373 25.944 149.621 26.168C148.885 26.408 148.125 26.528 147.341 26.528C146.253 26.528 145.237 26.336 144.293 25.952C143.365 25.552 142.557 25.016 141.869 24.344C141.181 23.672 140.645 22.936 140.261 22.136L143.093 20.096ZM158.093 20.096C158.429 20.704 158.805 21.232 159.221 21.68C159.653 22.128 160.117 22.472 160.613 22.712C161.125 22.952 161.661 23.072 162.221 23.072C162.813 23.072 163.301 22.928 163.685 22.64C164.069 22.336 164.261 21.928 164.261 21.416C164.261 20.984 164.149 20.64 163.925 20.384C163.701 20.112 163.341 19.856 162.845 19.616C162.349 19.376 161.693 19.104 160.877 18.8C160.477 18.656 160.013 18.456 159.485 18.2C158.973 17.944 158.485 17.616 158.021 17.216C157.557 16.8 157.173 16.304 156.869 15.728C156.565 15.136 156.413 14.424 156.413 13.592C156.413 12.6 156.669 11.744 157.181 11.024C157.709 10.304 158.413 9.76 159.293 9.392C160.189 9.008 161.181 8.816 162.269 8.816C163.389 8.816 164.357 9 165.173 9.368C166.005 9.736 166.693 10.2 167.237 10.76C167.781 11.32 168.197 11.888 168.485 12.464L165.389 14.192C165.149 13.792 164.869 13.448 164.549 13.16C164.245 12.856 163.901 12.624 163.517 12.464C163.149 12.288 162.749 12.2 162.317 12.2C161.741 12.2 161.301 12.328 160.997 12.584C160.693 12.824 160.541 13.128 160.541 13.496C160.541 13.88 160.685 14.216 160.973 14.504C161.277 14.792 161.701 15.056 162.245 15.296C162.805 15.536 163.477 15.792 164.261 16.064C164.853 16.288 165.405 16.552 165.917 16.856C166.429 17.144 166.877 17.496 167.261 17.912C167.661 18.328 167.973 18.808 168.197 19.352C168.421 19.896 168.533 20.52 168.533 21.224C168.533 22.072 168.357 22.832 168.005 23.504C167.669 24.16 167.205 24.712 166.613 25.16C166.037 25.608 165.373 25.944 164.621 26.168C163.885 26.408 163.125 26.528 162.341 26.528C161.253 26.528 160.237 26.336 159.293 25.952C158.365 25.552 157.557 25.016 156.869 24.344C156.181 23.672 155.645 22.936 155.261 22.136L158.093 20.096ZM173.933 26V22.664H182.405V26H173.933ZM173.933 12.536V9.2H182.405V12.536H173.933ZM173.933 18.8V15.536H181.925V18.8H173.933ZM171.245 9.2H175.133V26H171.245V9.2ZM189.906 18.392H194.106L199.362 26H194.61L189.906 18.392ZM185.706 9.2H189.762V26H185.706V9.2ZM188.25 12.632V9.2H191.826C193.266 9.2 194.466 9.432 195.426 9.896C196.386 10.36 197.114 11.008 197.61 11.84C198.106 12.656 198.354 13.608 198.354 14.696C198.354 15.768 198.106 16.72 197.61 17.552C197.114 18.368 196.386 19.008 195.426 19.472C194.466 19.936 193.266 20.168 191.826 20.168H188.25V17.024H191.538C192.082 17.024 192.546 16.944 192.93 16.784C193.33 16.608 193.634 16.36 193.842 16.04C194.05 15.704 194.154 15.304 194.154 14.84C194.154 14.376 194.05 13.984 193.842 13.664C193.634 13.328 193.33 13.072 192.93 12.896C192.546 12.72 192.082 12.632 191.538 12.632H188.25Z" fill="white"/>
</svg>
